# xmcd
#
# Track frame offsets: 
#        150
#        17420
#        36076
#        56280
#        70080
#        87553
#        105355
#        124560
#        138108
#        149929
#        164026
#        182742
#        201186
#
# Disc length: 2900 seconds
#
# Revision: 2
# Processed by: cddbd v1.5.2PL0 Copyright (c) Steve Scherf et al.
# Submitted via: ExactAudioCopy v1.3
#
DISCID=b40b520d
DTITLE=Georg Ringsgwandl - 2009 - Ringsgwandl - Untersendling
DYEAR=2009
DGENRE=Blues
TTITLE0=Beim Bäcker Meier
TTITLE1=Analog
TTITLE2=Nachtaktives Tier
TTITLE3=Zugehfrau
TTITLE4=Nest - Di vasteh i nie
TTITLE5=Welt im Krieg
TTITLE6=Der ganz normale RocknRoll
TTITLE7=Dahoam is ned dahoam
TTITLE8=Wo der Futtermais wachst
TTITLE9=Finazgenie
TTITLE10=Schuah putzen
TTITLE11=Jünger innen drin
TTITLE12=Kemma sehng
EXTD=YEAR: 2009
EXTT0=
EXTT1=
EXTT2=
EXTT3=
EXTT4=
EXTT5=
EXTT6=
EXTT7=
EXTT8=
EXTT9=
EXTT10=
EXTT11=
EXTT12=
PLAYORDER=
